<svg xmlns:xlink="http://www.w3.org/1999/xlink" width="3.717ex" height="2.509ex" style="font-size: 15px; vertical-align: -0.671ex;" viewBox="0 -791.3 1600.2 1080.4" role="img" focusable="false" xmlns="http://www.w3.org/2000/svg">
<defs>
<path stroke-width="1" id="E1-MJMATHBI-71" d="M38 159Q38 209 58 260T113 355T205 425T327 452Q338 452 348 451T366 449T382 444T394 440T405 434T414 429T422 423T429 418Q440 429 481 440T533 452Q540 452 545 447T550 437Q550 432 481 152Q410 -130 410 -131T437 -132H452Q479 -132 479 -150Q476 -187 462 -192Q458 -194 451 -194Q447 -194 414 -193T330 -192Q277 -192 249 -193T217 -194Q202 -194 197 -179Q197 -175 201 -159Q206 -139 211 -136T243 -132H283L319 15L307 10Q295 4 270 -2T220 -8Q134 -8 86 37T38 159ZM402 353Q402 358 395 368T369 390T324 401Q301 401 282 394T249 369T226 338T208 297T196 258T186 218Q166 141 166 107Q166 44 229 44Q265 44 294 61T337 95Q341 100 371 222T402 353Z"></path>
<path stroke-width="1" id="E1-MJMAIN-2C" d="M78 35T78 60T94 103T137 121Q165 121 187 96T210 8Q210 -27 201 -60T180 -117T154 -158T130 -185T117 -194Q113 -194 104 -185T95 -172Q95 -168 106 -156T131 -126T157 -76T173 -3V9L172 8Q170 7 167 6T161 3T152 1T140 0Q113 0 96 17Z"></path>
<path stroke-width="1" id="E1-MJMATHBI-6B" d="M99 -8Q71 -8 58 9T45 39Q45 51 116 336L188 622H184Q183 622 179 622T169 623T157 624T146 624T136 624T131 625Q119 628 119 642Q119 647 123 661T129 679Q133 684 144 685T220 690Q293 694 307 694Q324 694 328 679Q328 674 280 482Q231 290 231 287Q231 285 234 286Q259 302 294 334T356 390T420 433T493 452Q528 452 546 427T564 364Q564 308 538 282T480 256Q456 256 441 269T425 308Q425 339 444 359T483 384L502 389Q502 395 496 398Q493 400 483 400Q465 400 449 395T409 374T373 347T323 305T268 257Q274 256 282 256Q312 251 329 247T371 232T411 202Q431 181 431 146Q431 132 427 110T422 73Q422 44 440 44H442Q462 44 478 64T502 102T514 141Q518 157 522 159T547 162H558Q578 162 578 148Q578 118 537 56T440 -7H432Q374 -7 337 21T299 94Q299 103 301 116T304 139Q304 164 281 181T235 202L212 206H211Q176 47 160 24Q137 -8 99 -8Z"></path>
</defs>
<g stroke="currentColor" fill="currentColor" stroke-width="0" transform="matrix(1 0 0 -1 0 0)">
 <use xlink:href="#E1-MJMATHBI-71" x="0" y="0"></use>
 <use xlink:href="#E1-MJMAIN-2C" x="550" y="0"></use>
 <use xlink:href="#E1-MJMATHBI-6B" x="995" y="0"></use>
</g>
</svg>